<?xml version="1.0"?>
<svg xmlns="http://www.w3.org/2000/svg" viewBox="0 0 16 16">
    <path style="line-height:normal;text-indent:0;text-align:start;text-decoration-line:none;text-decoration-style:solid;text-decoration-color:#000;text-transform:none;block-progression:tb;isolation:auto;mix-blend-mode:normal" d="M 7 2 C 6.1762609 2 5.5662301 2.6904549 5.5019531 3.4589844 C 5.4485946 4.1009805 5.0247703 6.3251086 5.015625 6.3730469 L 4.0703125 8.9589844 C 4.0529311 8.982835 4.0305924 9 4 9 L 4 8.5 A 0.50005 0.50005 0 0 0 3.5 8 L 1 8 L 1 9 L 3 9 L 3 10 L 3 13 L 1 13 L 1 14 L 3.5 14 A 0.50005 0.50005 0 0 0 4 13.5 L 4 13 L 5.4628906 13 C 6.2850531 13 7.0261906 12.602335 7.5 11.982422 C 7.9737679 12.602857 8.7145508 13 9.5371094 13 L 11 13 L 11 13.5 A 0.50005 0.50005 0 0 0 11.5 14 L 14 14 L 14 13 L 12 13 L 12 12 L 12 9.5 L 12 9 L 14 9 L 14 8 L 11.5 8 A 0.50005 0.50005 0 0 0 11 8.5 C 10.96616 8.5 10.940178 8.4844772 10.923828 8.4570312 L 9.9804688 6.3476562 C 9.9642108 6.2623746 9.5509415 4.0953986 9.4980469 3.4589844 C 9.4337699 2.6904549 8.8237391 2 8 2 C 7.8285513 2 7.657119 2.0428765 7.5 2.125 C 7.342881 2.0428765 7.1714487 2 7 2 z M 6.9824219 3.0195312 C 6.9914707 3.0952449 7 3.2491149 7 3.5 L 7 7.5 L 7 10.71875 C 6.8610499 11.462194 6.2222323 12 5.4628906 12 L 4 12 L 4 10 C 4.3931277 10 4.7585984 9.7864426 4.9511719 9.4453125 L 4.9707031 9.4082031 L 5.9824219 6.6347656 L 5.9902344 6.5957031 C 5.9902344 6.5957031 6.4259795 4.4081118 6.4980469 3.5410156 C 6.5247856 3.2213458 6.7181757 3.0338565 6.9824219 3.0195312 z M 8.0175781 3.0195312 C 8.2818243 3.0338562 8.4752171 3.2213457 8.5019531 3.5410156 C 8.5740201 4.4081118 9.0097656 6.5957031 9.0097656 6.5957031 L 9.0195312 6.6523438 L 10.039062 8.9238281 L 10.048828 8.9433594 C 10.240541 9.2862984 10.606872 9.5 11 9.5 L 11 12 L 9.5371094 12 C 8.7777677 12 8.1398008 11.462856 8 10.71875 L 8 7.5 L 8 3.5 C 8 3.2491149 8.0085301 3.0952449 8.0175781 3.0195312 z" font-weight="400" font-family="sans-serif" white-space="normal" overflow="visible"/>
</svg>
